<svg width="24" height="24" viewBox="0 0 24 24" fill="none" xmlns="http://www.w3.org/2000/svg">
<path d="M12 3C16.9706 3 21 7.02944 21 12C21 16.9706 16.9706 21 12 21C7.02944 21 3 16.9706 3 12C3 7.02944 7.02944 3 12 3ZM12 4.34979C7.77491 4.34979 4.34979 7.77491 4.34979 12C4.34979 16.2251 7.77491 19.6502 12 19.6502C16.2251 19.6502 19.6502 16.2251 19.6502 12C19.6502 7.77491 16.2251 4.34979 12 4.34979ZM11.9967 10.6493C12.3384 10.6491 12.6209 10.9028 12.6658 11.2322L12.6721 11.3238L12.6753 16.2745C12.6755 16.6472 12.3736 16.9496 12.0008 16.9498C11.6592 16.95 11.3766 16.6963 11.3317 16.3669L11.3255 16.2753L11.3223 11.3247C11.322 10.9519 11.624 10.6496 11.9967 10.6493ZM12.0004 7.50184C12.4967 7.50184 12.8991 7.90418 12.8991 8.4005C12.8991 8.89681 12.4967 9.29915 12.0004 9.29915C11.5041 9.29915 11.1017 8.89681 11.1017 8.4005C11.1017 7.90418 11.5041 7.50184 12.0004 7.50184Z" fill="#E15334"/>
</svg>
